# Blender 5.1.1
# www.blender.org
mtllib mech-zdrojek-flat.mtl
o mech-zdrojek-flat0
v 0.000000 0.000000 0.215308
v -0.000000 0.000000 -0.215308
v 0.000000 0.324854 0.215308
v 0.000000 0.324854 -0.215308
v 0.215308 -0.000000 -0.000000
v -0.215308 0.000000 0.000000
v 0.215308 0.324854 -0.000000
v -0.215308 0.324854 0.000000
v 0.152246 -0.000000 0.152246
v -0.152246 0.000000 -0.152246
v 0.152246 0.324854 0.152246
v -0.152246 0.324854 -0.152246
v 0.152246 -0.000000 -0.152246
v -0.152246 0.000000 0.152246
v 0.152246 0.324854 -0.152246
v -0.152246 0.324854 0.152246
vn 1.0000 -0.0000 -0.0000
vn -0.0000 -0.0000 -1.0000
vn 0.7071 -0.0000 -0.7071
vn -0.7071 -0.0000 -0.7071
vt 1.000000 0.000000
vt 0.000000 0.754393
vt 0.000000 0.000000
vt 1.000000 0.754393
s 0
usemtl mech-zdrojek-flat0
f 2/1/1 3/2/1 1/3/1
f 9/3/3 12/4/3 11/2/3
f 2/1/1 4/4/1 3/2/1
f 9/3/3 10/1/3 12/4/3
usemtl mech-zdrojek-flat90
f 6/1/2 7/2/2 5/3/2
f 14/1/4 15/2/4 13/3/4
f 6/1/2 8/4/2 7/2/2
f 14/1/4 16/4/4 15/2/4
