# Blender 5.1.1
# www.blender.org
mtllib moczarka-delikatna-flat.mtl
o moczarka-delikatna-flat0
v -0.000000 0.000000 -0.475204
v 0.000000 0.000000 0.475204
v 0.000000 1.578459 0.475204
v 0.000000 1.578459 -0.475204
v -0.475204 0.000000 0.000000
v 0.475204 -0.000000 -0.000000
v 0.475204 1.578459 -0.000000
v -0.475204 1.578459 0.000000
v -0.336020 0.000000 -0.336020
v 0.336020 -0.000000 0.336020
v 0.336020 1.578459 0.336020
v -0.336020 1.578459 -0.336020
v -0.336020 0.000000 0.336020
v 0.336020 -0.000000 -0.336020
v 0.336020 1.578459 -0.336020
v -0.336020 1.578459 0.336020
vn 1.0000 -0.0000 -0.0000
vn -0.0000 -0.0000 -1.0000
vn 0.7071 -0.0000 -0.7071
vn -0.7071 -0.0000 -0.7071
vt 0.801055 0.000000
vt 0.198945 1.000000
vt 0.198944 0.000000
vt 0.801055 1.000000
s 0
usemtl moczarka-delikatna-flat0
f 1/1/1 3/2/1 2/3/1
f 9/1/3 11/2/3 10/3/3
f 1/1/1 4/4/1 3/2/1
f 9/1/3 12/4/3 11/2/3
usemtl moczarka-delikatna-flat90
f 5/1/2 7/2/2 6/3/2
f 13/1/4 15/2/4 14/3/4
f 5/1/2 8/4/2 7/2/2
f 13/1/4 16/4/4 15/2/4
