# Blender 5.1.1
# www.blender.org
mtllib tatarak2-flat.mtl
o tatarak2-płaski
v 0.267969 0.000000 -0.267969
v -0.267969 0.000000 0.267969
v 0.267969 0.859500 -0.267969
v -0.267969 0.859500 0.267969
v 0.378966 -0.000000 -0.000000
v -0.378965 0.000000 -0.000000
v 0.378966 0.859500 0.000000
v -0.378965 0.859500 0.000000
v -0.000000 0.000000 -0.375776
v 0.000000 -0.000000 0.375776
v 0.000000 0.859327 -0.375776
v 0.000000 0.859327 0.375776
v -0.265714 0.000000 -0.265714
v 0.265714 0.000000 0.265714
v -0.265714 0.859327 -0.265714
v 0.265714 0.859327 0.265714
vn 0.7071 -0.0000 0.7071
vn -0.0000 -0.0000 1.0000
vn 1.0000 -0.0000 -0.0000
vn 0.7071 -0.0000 -0.7071
vt 0.878965 0.859500
vt 0.121034 0.000000
vt 0.878965 0.000000
vt 0.875776 0.859327
vt 0.124224 0.000000
vt 0.875776 0.000000
vt 0.124224 0.859327
vt 0.121034 0.859500
s 0
usemtl tatarak2-0
f 3/1/1 2/2/1 1/3/1
f 7/1/2 6/2/2 5/3/2
f 3/1/1 4/8/1 2/2/1
f 7/1/2 8/8/2 6/2/2
usemtl tatarak2-90
f 11/4/3 10/5/3 9/6/3
f 13/6/4 16/7/4 14/5/4
f 11/4/3 12/7/3 10/5/3
f 13/6/4 15/4/4 16/7/4
