# Blender 5.1.1
# www.blender.org
mtllib tatarak1-flat.mtl
o tatarak1-płaski
v -0.219393 0.000000 -0.207369
v 0.202160 0.000000 0.214184
v 0.257072 -0.000000 0.003636
v -0.234272 0.000000 0.003636
v -0.008388 -0.000000 -0.294771
v -0.008388 0.000000 0.301396
v 0.179320 -0.000000 -0.184072
v -0.168112 0.000000 0.163360
v -0.219393 0.823003 -0.207369
v 0.202160 0.823003 0.214184
v -0.008388 0.823003 -0.294771
v -0.008388 0.823003 0.301396
v 0.257072 0.823003 0.003636
v -0.234272 0.823003 0.003636
v 0.179320 0.823003 -0.184072
v -0.168112 0.823003 0.163360
vn 0.7071 -0.0000 -0.7071
vn 1.0000 -0.0000 -0.0000
vn -0.0000 -0.0000 1.0000
vn 0.7071 -0.0000 0.7071
vt 0.727281 0.000000
vt 0.206188 0.719365
vt 0.206188 0.000000
vt 0.732031 0.000000
vt 0.302561 0.719365
vt 0.302561 0.000000
vt 0.727281 0.719365
vt 0.732031 0.719365
s 0
usemtl tatarak1-90
f 1/1/1 10/2/1 2/3/1
f 5/1/2 12/2/2 6/3/2
f 1/1/1 9/7/1 10/2/1
f 5/1/2 11/7/2 12/2/2
usemtl tatarak1-0
f 3/4/3 14/5/3 4/6/3
f 7/4/4 16/5/4 8/6/4
f 3/4/3 13/8/3 14/5/3
f 7/4/4 15/8/4 16/5/4
