# Blender 5.1.1
# www.blender.org
mtllib tatarak5-flat.mtl
o tatarak5-płaski
v 0.308882 0.000000 0.308882
v -0.308882 0.000000 -0.308882
v 0.308882 0.873649 0.308882
v -0.308882 0.873649 -0.308882
v -0.436825 0.000000 -0.000000
v 0.436825 0.000000 -0.000000
v -0.436825 0.873649 0.000000
v 0.436825 0.873649 0.000000
v 0.000000 0.000000 0.436825
v -0.000000 0.000000 -0.436825
v 0.000000 0.873649 0.436825
v 0.000000 0.873649 -0.436825
v -0.308882 0.000000 0.308882
v 0.308882 0.000000 -0.308882
v -0.308882 0.873649 0.308882
v 0.308882 0.873649 -0.308882
vn 0.7071 -0.0000 -0.7071
vn -0.0000 -0.0000 1.0000
vn 1.0000 -0.0000 -0.0000
vn 0.7071 -0.0000 0.7071
vt 1.000000 0.000000
vt 0.000000 1.000000
vt 0.000000 0.000000
vt 1.000000 1.000000
s 0
usemtl tatarak5-90
f 2/1/1 3/2/1 1/3/1
f 10/1/3 11/2/3 9/3/3
f 2/1/1 4/4/1 3/2/1
f 10/1/3 12/4/3 11/2/3
usemtl tatarak5-0
f 5/3/2 8/4/2 7/2/2
f 14/1/4 15/2/4 13/3/4
f 5/3/2 6/1/2 8/4/2
f 14/1/4 16/4/4 15/2/4
