# Blender 5.1.1
# www.blender.org
mtllib tatarak3-flat.mtl
o tatarak3-płaski
v 0.234749 -0.000000 -0.234749
v -0.234749 -0.000000 0.234749
v -0.234749 1.190932 0.234749
v 0.234749 1.190932 -0.234749
v 0.331985 -0.000000 -0.000000
v -0.331985 -0.000000 -0.000000
v -0.331985 1.190932 0.000000
v 0.331985 1.190932 0.000000
v -0.000000 -0.000000 -0.331985
v 0.000000 -0.000000 0.331985
v 0.000000 1.190932 0.331985
v -0.000000 1.190932 -0.331985
v -0.234749 -0.000000 -0.234749
v 0.234749 -0.000000 0.234749
v 0.234749 1.190932 0.234749
v -0.234749 1.190932 -0.234749
vn 0.7071 -0.0000 0.7071
vn -0.0000 -0.0000 1.0000
vn 1.0000 -0.0000 -0.0000
vn 0.7071 -0.0000 -0.7071
vt 0.778761 0.000000
vt 0.221239 1.000000
vt 0.221239 0.000000
vt 0.778761 1.000000
s 0
usemtl tatarak3-0
f 1/1/1 3/2/1 2/3/1
f 6/3/2 8/4/2 7/2/2
f 1/1/1 4/4/1 3/2/1
f 6/3/2 5/1/2 8/4/2
usemtl tatarak3-90
f 9/1/3 11/2/3 10/3/3
f 13/1/4 15/2/4 14/3/4
f 9/1/3 12/4/3 11/2/3
f 13/1/4 16/4/4 15/2/4
