# Blender 5.1.1
# www.blender.org
mtllib tatarak6-flat.mtl
o tatarak6-90.001
v 0.269568 0.000000 0.269568
v -0.269568 0.000000 -0.269568
v 0.269568 0.443367 0.269568
v -0.269568 0.443367 -0.269568
v -0.381227 0.000000 0.000000
v 0.381227 0.000000 -0.000000
v -0.381227 0.443505 -0.000000
v 0.381227 0.443505 0.000000
v 0.000000 0.000000 0.381227
v -0.000000 0.000000 -0.381227
v 0.000000 0.443367 0.381227
v -0.000000 0.443367 -0.381227
v -0.269568 0.000000 0.269568
v 0.269568 0.000000 -0.269568
v -0.269568 0.443505 0.269568
v 0.269568 0.443505 -0.269568
vn 0.7071 -0.0000 -0.7071
vn -0.0000 -0.0000 1.0000
vn 1.0000 -0.0000 -0.0000
vn 0.7071 -0.0000 0.7071
vt 1.000000 0.000000
vt 0.000000 0.581500
vt 0.000000 0.000000
vt 0.000000 0.581681
vt 1.000000 0.581500
vt 1.000000 0.581681
s 0
usemtl tatarak6-90
f 2/1/1 3/2/1 1/3/1
f 10/1/3 11/2/3 9/3/3
f 2/1/1 4/5/1 3/2/1
f 10/1/3 12/5/3 11/2/3
usemtl tatarak6-0
f 6/1/2 7/4/2 5/3/2
f 14/1/4 15/4/4 13/3/4
f 6/1/2 8/6/2 7/4/2
f 14/1/4 16/6/4 15/4/4
