# Blender 5.1.1
# www.blender.org
mtllib tatarak4-flat.mtl
o tatarak4-płaski
v -0.203559 0.000000 -0.203559
v 0.203559 0.000000 0.203559
v 0.203559 1.238410 0.203559
v -0.203559 1.238410 -0.203559
v 0.296595 -0.000000 -0.000000
v -0.296595 0.000000 -0.000000
v -0.296595 1.238410 -0.000000
v 0.296595 1.238410 -0.000000
v -0.000000 -0.000000 -0.287876
v 0.000000 0.000000 0.287876
v 0.000000 1.238410 0.287876
v 0.000000 1.238410 -0.287876
v 0.209724 -0.000000 -0.209724
v -0.209724 0.000000 0.209724
v -0.209724 1.238410 0.209724
v 0.209724 1.238410 -0.209724
vn 0.7071 -0.0000 -0.7071
vn -0.0000 -0.0000 1.0000
vn 1.0000 -0.0000 -0.0000
vn 0.7071 -0.0000 0.7071
vt 0.655209 0.000000
vt 0.190297 1.000000
vt 0.190297 0.000000
vt 0.739497 0.000000
vt 0.260503 1.000000
vt 0.260503 0.000000
vt 0.655209 1.000000
vt 0.739497 1.000000
s 0
usemtl tatarak4-90
f 1/1/1 3/2/1 2/3/1
f 9/1/3 11/2/3 10/3/3
f 1/1/1 4/7/1 3/2/1
f 9/1/3 12/7/3 11/2/3
usemtl tatarak4-0
f 5/4/2 7/5/2 6/6/2
f 13/4/4 15/5/4 14/6/4
f 5/4/2 8/8/2 7/5/2
f 13/4/4 16/8/4 15/5/4
